<?xml version="1.0" encoding="utf-8"?>
<!-- Generator: Adobe Illustrator 15.0.2, SVG Export Plug-In  -->
<!DOCTYPE svg PUBLIC "-//W3C//DTD SVG 1.1//EN" "http://www.w3.org/Graphics/SVG/1.1/DTD/svg11.dtd" [
	<!ENTITY ns_flows "http://ns.adobe.com/Flows/1.0/">
]>
<svg version="1.1"
	 xmlns="http://www.w3.org/2000/svg" xmlns:xlink="http://www.w3.org/1999/xlink" xmlns:a="http://ns.adobe.com/AdobeSVGViewerExtensions/3.0/"
	 x="0px" y="0px" width="480px" height="360px" viewBox="-8.499 -105.915 480 360" enable-background="new -8.499 -105.915 480 360"
	 xml:space="preserve">
<defs>
</defs>
<path fill="#33669A" d="M0,136.514h26.333V44.513L81,136.514h28V3.846H82.333v91.667l-54-91.667H11c0,0-8.667,0.666-11,12.333
	V136.514z"/>
<path fill="#33669A" d="M217.668,41.846c0,0,2.334-41.334-51.334-41.667c-53.666-0.333-49,41.667-49,41.667s-4,28,29,34.333
	c33,6.334,45.334,15.666,47.334,18s7.666,18.334-13.667,22.334s-33-7.666-33-7.666s-5.667-10.334-5.667-13.668l-26,0.668
	c0,0,0,27.666,23.334,37.999c23.333,10.334,52.666,7,69.666-3.666c17-10.667,18.363-41.333,9.349-52.333
	c-9.015-11-25.349-19-50.682-23s-27.333-17-21.333-25s34.334-12.667,43.666,3c0,0,1.667,7,10.667,8.667L217.668,41.846z"/>
<path fill="#33669A" d="M331.002,91.513c-1.666-14-16-18.334-16-18.334s20.666-2.332,20-35
	c-0.666-32.667-34.667-34.333-34.667-34.333h-60.751c-9.751,2.333-11.249,11.667-11.249,11.667v121.001h27V85.179
	c0,0,23-0.332,33.667,0c10.667,0.334,15.666,7.668,15.666,26c0,18.334,3.667,25.335,3.667,25.335h29.333
	C330.001,130.514,332.668,105.513,331.002,91.513z M290.668,62.179h-34.666V26.846h34.666c0,0,17.334-2,18,17.667
	S290.668,62.179,290.668,62.179z"/>
<path fill="#33669A" d="M438.668,91.513h26.334c0,0,0.666,46.515-55.334,48.591s-65-45.003-65-69.964
	c0-24.96,7-66.631,60.167-69.962s60.167,41.335,60.167,47.002l-17.667,0.667c0,0-10-2-11-6.333s-10.333-19.333-31.5-16.333
	s-33.167,15.812-33.167,44.906c0,29.094,12.667,42.428,30.667,45.428S432.668,108.847,438.668,91.513z"/>
</svg>
